<?xml version="1.0" encoding="UTF-8"?>
<svg xmlns="http://www.w3.org/2000/svg" viewBox="0 0 128 128" width="128" height="128">
  <title>Career-Ops</title>
  <circle cx="57" cy="56" r="38" fill="none" stroke="#252A12" stroke-width="10"/>
  <path d="M84 83 114 113" fill="none" stroke="#252A12" stroke-linecap="round" stroke-width="14"/>
  <path fill="#252A12" d="m78.8 82.4 8.6-8.6 10.1 10.1-8.6 8.6z"/>
  <path fill="#F28C28" fill-rule="evenodd" d="M47 43a8 8 0 0 1 8-8h18a8 8 0 0 1 8 8v9h-9v-8a2 2 0 0 0-2-2H58a2 2 0 0 0-2 2v8h-9v-9Z"/>
  <path fill="#F28C28" d="M36 52h56a7 7 0 0 1 7 7v15.3c-9.7 4-21.1 6-35 6s-25.3-2-35-6V59a7 7 0 0 1 7-7Z"/>
  <path fill="#F28C28" d="M29 79.5c10.1 4.4 21.4 6.6 35 6.6s24.9-2.2 35-6.6V91a8 8 0 0 1-8 8H37a8 8 0 0 1-8-8V79.5Z"/>
  <path d="M31 76.6c9.4 4.4 20.4 6.6 33 6.6s23.6-2.2 33-6.6" fill="none" stroke="#fff" stroke-linecap="round" stroke-width="6"/>
  <rect width="18" height="18" x="55" y="72" fill="#fff" rx="5"/>
  <rect width="8" height="11" x="60" y="75.5" fill="#F28C28" rx="2"/>
</svg>
